<?xml version="1.0" encoding="utf-8"?>
<!-- Generator: Adobe Illustrator 15.0.0, SVG Export Plug-In . SVG Version: 6.00 Build 0)  -->
<!DOCTYPE svg PUBLIC "-//W3C//DTD SVG 1.1//EN" "http://www.w3.org/Graphics/SVG/1.1/DTD/svg11.dtd">
<svg version="1.1" id="图层_1" xmlns="http://www.w3.org/2000/svg" xmlns:xlink="http://www.w3.org/1999/xlink" x="0px" y="0px"
	 width="1024px" height="1024px" viewBox="0 0 1024 1024" enable-background="new 0 0 1024 1024" xml:space="preserve">
<g>
	<path fill="none" d="M527.045,504.359c-13.477,0-25.66,8.594-28.045,20.843c-2.486,12.803,0.341,17.597,0.341,17.597
		c4.099,11.167,14.824,19.23,27.704,19.23c16.404,0,29.691-12.89,29.691-28.829S543.449,504.359,527.045,504.359z"/>
	<path fill="none" d="M526.095,316.052l-109.388,39.81c0.861,4.551,1.448,9.162,1.448,13.896c0,21.269,2.44,40.489-11.897,54.385
		l62.95,60.808c12.383-18.259,33.646-19.065,57.837-19.065c4.805,0,9.455,0.486,13.984,1.37l27.327-119.329
		C550.253,343.17,535.107,331.506,526.095,316.052z"/>
	<path fill="none" d="M338.955,331.313c-21.883,0-39.583,17.204-39.583,38.445c0,21.247,17.701,38.468,39.583,38.468
		c21.871,0,39.599-17.221,39.599-38.468C378.554,348.517,360.826,331.313,338.955,331.313z"/>
	<path fill="none" d="M805.359,370.034v-12.736C792.723,191.874,636.123,53.319,465.552,53.319
		c-164.248,0-320.846,125.841-339.817,284.903l-6.313,44.526v38.175c0,76.366,25.285,146.341,69.497,209.966l12.636,19.076
		c25.262,31.813,29.371,64.344,35.684,108.869c6.318,38.175,0,81.31,0,113.122v101.798h418.515v-67.877
		c0-63.624,5.644-130.065,75.122-130.065h18.968c31.579,0,87.097-17.674,87.097-49.485v-89.075
		c0-38.175,12.658-76.359,44.238-82.723c-31.58-63.625-56.865-114.514-69.502-152.683
		C811.676,389.111,805.359,376.392,805.359,370.034z M608.211,346.833l-31.669,138.306h-1.116
		c12.869,12.206,20.911,29.194,20.911,48.062c0,37.157-31.017,67.291-69.292,67.291c-38.274,0-69.291-30.134-69.291-67.291
		c0-2.982,0.508-5.854,0.906-8.737l-87.219-84.717c-9.941,4.379-20.887,6.926-32.486,6.926c-43.732,0-79.188-34.425-79.188-76.914
		c0-42.466,35.456-76.885,79.188-76.885c25.517,0,47.972,11.913,62.464,30.127l115.983-42.256
		c1.392-35.96,31.646-64.785,69.037-64.785c38.273,0,69.313,30.128,69.313,67.292C655.753,312.999,635.749,337.93,608.211,346.833z"
		/>
	<path fill="none" d="M586.439,254.405c-16.382,0-29.703,12.907-29.703,28.847c0,15.917,13.321,28.841,29.703,28.841
		c16.402,0,29.702-12.924,29.702-28.841C616.142,267.313,602.842,254.405,586.439,254.405z"/>
	<path fill="#19a97b" d="M586.439,215.959c-37.392,0-67.646,28.825-69.037,64.785L401.419,323
		c-14.492-18.215-36.948-30.127-62.464-30.127c-43.732,0-79.188,34.419-79.188,76.885c0,42.488,35.456,76.914,79.188,76.914
		c11.599,0,22.544-2.546,32.486-6.926l87.219,84.717c-0.398,2.883-0.906,5.755-0.906,8.737c0,37.157,31.017,67.291,69.291,67.291
		c38.275,0,69.292-30.134,69.292-67.291c0-18.867-8.042-35.855-20.911-48.062h1.116l31.669-138.306
		c27.538-8.903,47.542-33.834,47.542-63.581C655.753,246.088,624.713,215.959,586.439,215.959z M338.955,408.226
		c-21.883,0-39.583-17.221-39.583-38.468c0-21.241,17.701-38.445,39.583-38.445c21.871,0,39.599,17.204,39.599,38.445
		C378.554,391.005,360.826,408.226,338.955,408.226z M527.045,562.029c-12.88,0-23.605-8.063-27.704-19.23
		c0,0-2.828-4.794-0.341-17.597c2.386-12.249,14.569-20.843,28.045-20.843c16.404,0,29.691,12.902,29.691,28.841
		S543.449,562.029,527.045,562.029z M541.029,467.255c-4.529-0.884-9.18-1.37-13.984-1.37c-24.191,0-45.454,0.806-57.837,19.065
		l-62.95-60.808c14.337-13.896,11.897-33.116,11.897-54.385c0-4.733-0.586-9.345-1.448-13.896l109.388-39.81
		c9.013,15.454,24.158,27.118,42.262,31.874L541.029,467.255z M586.439,312.093c-16.382,0-29.703-12.924-29.703-28.841
		c0-15.939,13.321-28.847,29.703-28.847c16.402,0,29.702,12.907,29.702,28.847C616.142,299.169,602.842,312.093,586.439,312.093z"/>
	<path fill="#19a97b" d="M945.664,567.265c-44.216-76.36-69.479-139.985-82.116-190.873c0-6.357-6.306-12.737-6.306-25.456
		C838.265,153.705,674.022,1,465.552,1C263.41,1,99.147,147.348,73.879,331.843l-6.313,50.905v38.175
		c0,89.08,31.581,171.781,82.126,248.141l12.637,19.099c18.95,25.428,25.263,57.24,31.582,89.053s0,57.273,0,89.086v133.601
		c0,12.725,25.261,19.098,37.898,19.098H648.76c12.637,0,50.524-6.373,50.524-19.098v-95.438c0-31.812,0-76.339,31.591-76.339
		h18.968c69.478,0,138.979-38.175,138.979-101.799v-89.075c0-19.098,6.309-31.813,25.264-38.175l25.261-6.373
		C951.982,592.704,951.982,573.627,945.664,567.265z M836.939,637.252v89.075c0,31.812-55.518,49.485-87.097,49.485h-18.968
		c-69.479,0-75.122,66.441-75.122,130.065v67.877H237.238V871.957c0-31.813,6.318-74.947,0-113.122
		c-6.313-44.525-10.422-77.057-35.684-108.869l-12.636-19.076c-44.211-63.625-69.497-133.601-69.497-209.966v-38.175l6.313-44.526
		C144.707,179.16,301.305,53.319,465.552,53.319c170.571,0,327.17,138.555,339.807,303.979v12.736
		c0,6.357,6.316,19.077,6.316,31.813c12.637,38.169,37.922,89.058,69.502,152.683C849.598,560.893,836.939,599.077,836.939,637.252z
		"/>
</g>
</svg>
