<?xml version="1.0" encoding="utf-8"?>
<!-- Generator: Adobe Illustrator 15.0.0, SVG Export Plug-In . SVG Version: 6.00 Build 0)  -->
<!DOCTYPE svg PUBLIC "-//W3C//DTD SVG 1.1//EN" "http://www.w3.org/Graphics/SVG/1.1/DTD/svg11.dtd">
<svg version="1.1" id="图层_1" xmlns="http://www.w3.org/2000/svg" xmlns:xlink="http://www.w3.org/1999/xlink" x="0px" y="0px"
	 width="1024px" height="1024px" viewBox="0 0 1024 1024" enable-background="new 0 0 1024 1024" xml:space="preserve">
<g>
	<path fill="none" d="M787.369,934.491c-12.407,0-23.603,7.914-25.788,19.193c-2.31,11.784,0.304,16.208,0.304,16.208
		c3.763,10.272,13.627,17.696,25.484,17.696c15.113,0,27.357-11.867,27.357-26.555C814.727,946.361,802.482,934.491,787.369,934.491
		z"/>
	<path fill="none" d="M614.222,775.184c-20.139,0-36.469,15.834-36.469,35.391c0,19.536,16.33,35.411,36.469,35.411
		c20.136,0,36.437-15.875,36.437-35.411C650.658,791.018,634.357,775.184,614.222,775.184z"/>
	<path fill="none" d="M786.507,761.128l-100.702,36.651c0.774,4.19,1.312,8.434,1.312,12.795c0,19.556,2.259,37.252-10.942,50.064
		l57.948,55.985c11.41-16.809,30.976-17.541,53.247-17.541c4.425,0,8.726,0.448,12.877,1.259l25.157-109.873
		C808.737,786.075,794.793,775.356,786.507,761.128z"/>
	<path fill="none" d="M842.063,704.372c-15.092,0-27.337,11.877-27.337,26.555c0,14.653,12.245,26.551,27.337,26.551
		s27.346-11.897,27.346-26.551C869.409,716.249,857.155,704.372,842.063,704.372z"/>
	<path fill="#19a97b" d="M842.063,668.971c-34.436,0-62.279,26.543-63.562,59.646L671.73,767.527
		c-13.354-16.771-34.019-27.767-57.509-27.767c-40.282,0-72.918,31.722-72.918,70.813c0,39.112,32.636,70.813,72.918,70.813
		c10.677,0,20.755-2.369,29.889-6.377l80.309,78.001c-0.365,2.657-0.834,5.289-0.834,8.023c0,34.232,28.568,61.966,63.784,61.966
		c35.249,0,63.816-27.733,63.816-61.966c0-17.35-7.403-32.988-19.251-44.259h1.017l29.146-127.313
		c25.363-8.197,43.77-31.152,43.77-58.536C905.867,696.714,877.29,668.971,842.063,668.971z M614.222,845.985
		c-20.139,0-36.469-15.875-36.469-35.411c0-19.557,16.33-35.391,36.469-35.391c20.136,0,36.437,15.834,36.437,35.391
		C650.658,830.11,634.357,845.985,614.222,845.985z M787.369,987.589c-11.857,0-21.722-7.424-25.484-17.696
		c0,0-2.613-4.424-0.304-16.208c2.186-11.279,13.381-19.193,25.788-19.193c15.113,0,27.357,11.87,27.357,26.543
		C814.727,975.722,802.482,987.589,787.369,987.589z M800.246,900.342c-4.151-0.811-8.452-1.259-12.877-1.259
		c-22.271,0-41.837,0.732-53.247,17.541l-57.948-55.985c13.201-12.813,10.942-30.509,10.942-50.064
		c0-4.361-0.537-8.604-1.312-12.795l100.702-36.651c8.286,14.229,22.23,24.947,38.896,29.341L800.246,900.342z M842.063,757.478
		c-15.092,0-27.337-11.897-27.337-26.551c0-14.678,12.245-26.555,27.337-26.555s27.346,11.877,27.346,26.555
		C869.409,745.58,857.155,757.478,842.063,757.478z"/>
	<path fill="#19a97b" d="M782.429,382.042c0-12.956-10.497-23.442-23.453-23.442H267.676c-12.971,0-23.477,10.486-23.477,23.442
		c0,12.915,10.506,23.411,23.477,23.411h491.299C771.932,405.454,782.429,394.958,782.429,382.042z"/>
	<path fill="#19a97b" d="M758.976,180.518H267.676c-12.971,0-23.477,10.496-23.477,23.431c0,12.936,10.506,23.421,23.477,23.421
		h491.299c12.956,0,23.453-10.485,23.453-23.421C782.429,191.014,771.932,180.518,758.976,180.518z"/>
	<path fill="#19a97b" d="M535.772,892.815H150.944V49.31h703.944v538.387c0,12.956,10.505,23.439,23.481,23.439
		c12.936,0,23.451-10.483,23.451-23.439V25.877c0-12.956-10.516-23.431-23.451-23.431H127.472
		c-12.967,0-23.477,10.475-23.477,23.431v890.381c0,12.946,10.51,23.432,23.477,23.432h408.3c12.955,0,23.451-10.485,23.451-23.432
		C559.224,903.322,548.728,892.815,535.772,892.815z"/>
	<path fill="#19a97b" d="M267.676,536.663c-12.952,0-23.455,10.507-23.455,23.43c0,12.947,10.503,23.444,23.455,23.444h333.792
		c12.965,0,23.471-10.497,23.471-23.444c0-12.923-10.506-23.43-23.471-23.43H267.676z"/>
</g>
</svg>
