<?xml version="1.0" standalone="no"?><!DOCTYPE svg PUBLIC "-//W3C//DTD SVG 1.1//EN" "http://www.w3.org/Graphics/SVG/1.1/DTD/svg11.dtd"><svg t="1495873249496" class="icon" style="" viewBox="0 0 1024 1024" version="1.1" xmlns="http://www.w3.org/2000/svg" p-id="3647" xmlns:xlink="http://www.w3.org/1999/xlink" fill="#19a97b" width="128" height="128"><defs><style type="text/css"></style></defs><path fill="#19a97b" d="M862.137519 676.385954c-3.006474 0-5.987365 0.113587-8.940626 0.327458L688.893826 482.742652l116.466572-145.034211c16.995069 8.885368 36.307927 13.919011 56.777121 13.919011 67.801199 0 122.960473-55.159274 122.960473-122.960473S929.938718 105.70753 862.137519 105.70753s-122.960473 55.159274-122.960473 122.960473c0 28.872584 10.007935 55.44887 26.730805 76.453253L655.207609 442.973904l-124.368542-146.823973c-0.337691-0.407276-0.688685-0.805342-1.054005-1.194198-0.053212-0.056282-0.10847-0.109494-0.161682-0.165776-0.230244-0.240477-0.462534-0.479931-0.704035-0.713244-0.229221-0.222057-0.463558-0.434905-0.698918-0.64673-0.069585-0.062422-0.137123-0.127913-0.207731-0.190335-1.971911-1.736551-4.158716-3.1262-6.475482-4.15667-2.635013-1.175779-5.41022-1.871627-8.207939-2.111081-0.034792-0.00307-0.070608-0.008186-0.105401-0.010233-0.304945-0.024559-0.60989-0.039909-0.914836-0.054235-0.11461-0.005117-0.228197-0.014326-0.342808-0.01842-0.226151-0.007163-0.451278-0.00614-0.677429-0.007163-0.195451-0.001023-0.38988-0.00614-0.584308-0.00307-0.143263 0.002047-0.286526 0.011256-0.429789 0.01535-0.277316 0.00921-0.554632 0.01842-0.831948 0.035816-0.060375 0.004093-0.12075 0.011256-0.181125 0.01535-3.186576 0.230244-6.347568 1.052982-9.304923 2.489704-2.276856 1.103124-4.412496 2.559289-6.323009 4.355191-0.080841 0.075725-0.157589 0.155543-0.237407 0.232291-0.215918 0.207731-0.431835 0.415462-0.641613 0.632403-0.246617 0.25378-0.484024 0.514723-0.718361 0.776689-0.038886 0.044002-0.079818 0.084934-0.11768 0.128937-0.355087 0.403183-0.695848 0.814552-1.02126 1.235131L373.451504 444.877253 255.438717 306.241776c17.265222-21.176298 27.634384-48.185442 27.634384-77.574796 0-67.800175-55.159274-122.960473-122.960473-122.960473s-122.960473 55.159274-122.960473 122.960473 55.159274 122.960473 122.960473 122.960473c19.952424 0 38.807864-4.780887 55.487755-13.251815l125.44199 147.364279L187.414437 679.444617c-8.78406-1.99954-17.921161-3.059686-27.301809-3.059686-67.800175 0-122.960473 55.159274-122.960473 122.959449 0 67.801199 55.159274 122.960473 122.960473 122.960473s122.960473-55.159274 122.960473-122.960473c0-39.663348-18.883069-74.994018-48.125067-97.493451l139.901307-176.397522 63.86147 75.022671c-21.313422 19.590174-34.694173 47.682999-34.694173 78.845743 0 59.059094 48.048319 107.107413 107.108436 107.107413 59.059094 0 107.107413-48.048319 107.107413-107.107413 0-28.119431-10.897188-53.737902-28.684296-72.867588l66.712401-83.07609 143.857409 169.83199c-36.426631 21.367657-60.941977 60.938907-60.941977 106.135272 0 67.801199 55.159274 122.960473 122.960473 122.960473s122.960473-55.159274 122.960473-122.960473C985.097992 731.545228 929.938718 676.385954 862.137519 676.385954zM862.137519 156.87284c39.588647 0 71.795163 32.207539 71.795163 71.795163s-32.207539 71.795163-71.795163 71.795163-71.795163-32.207539-71.795163-71.795163S822.549895 156.87284 862.137519 156.87284zM88.318488 228.668003c0-39.587624 32.207539-71.795163 71.795163-71.795163s71.795163 32.207539 71.795163 71.795163-32.207539 71.795163-71.795163 71.795163S88.318488 268.255627 88.318488 228.668003zM160.112628 871.140567c-39.587624 0-71.795163-32.207539-71.795163-71.795163 0-39.587624 32.207539-71.79414 71.795163-71.79414s71.795163 32.207539 71.795163 71.79414C231.907791 838.933027 199.700251 871.140567 160.112628 871.140567zM511.126097 735.264946c-30.847565 0-55.943127-25.095561-55.943127-55.942103 0-30.847565 25.095561-55.943127 55.943127-55.943127 30.846542 0 55.942103 25.095561 55.942103 55.943127C567.067176 710.168362 541.971615 735.264946 511.126097 735.264946zM546.57547 578.251913c-11.100826-3.904936-23.030529-6.037507-35.450397-6.037507-9.129938 0-17.994839 1.151219-26.461675 3.310396l-77.405951-90.933035L511.776919 352.807325l110.798479 130.804115L546.57547 578.251913zM862.137519 871.140567c-39.588647 0-71.795163-32.207539-71.795163-71.795163 0-39.587624 32.207539-71.79414 71.795163-71.79414s71.795163 32.207539 71.795163 71.79414C933.932682 838.933027 901.726166 871.140567 862.137519 871.140567z" p-id="3648"></path></svg>